<svg xmlns="http://www.w3.org/2000/svg" version="1.1" xmlns:xlink="http://www.w3.org/1999/xlink" xmlns:svgjs="http://svgjs.dev/svgjs" width="1000" height="315" viewBox="0 0 1000 315"><g transform="matrix(1,0,0,1,-0.6060452297378447,-0.2586467332029372)"><svg viewBox="0 0 396 125" data-background-color="#ffffff" preserveAspectRatio="xMidYMid meet" height="315" width="1000" xmlns="http://www.w3.org/2000/svg" xmlns:xlink="http://www.w3.org/1999/xlink"><g id="tight-bounds" transform="matrix(1,0,0,1,0.23999391097618172,0.10263759254084448)"><svg viewBox="0 0 395.52 124.79468579887018" height="124.79468579887018" width="395.52"><g><svg viewBox="0 0 624.8244107725191 197.14493836423117" height="124.79468579887018" width="395.52"><g transform="matrix(1,0,0,1,229.30441077251905,71.32745282442747)"><svg viewBox="0 0 395.52 54.49003271537622" height="54.49003271537622" width="395.52"><g id="textblocktransform"><svg viewBox="0 0 395.52 54.49003271537622" height="54.49003271537622" width="395.52" id="textblock"><g><svg viewBox="0 0 395.52 54.49003271537622" height="54.49003271537622" width="395.52"><g transform="matrix(1,0,0,1,0,0)"><svg width="395.52" viewBox="-1.7999999523162842 -37.29999923706055 275.0799865722656 37.89999771118164" height="54.49003271537622" data-palette-color="#096a2e"><path d="M16.65-37.2L16.65-37.2Q17.95-37.2 19.63-36.83 21.3-36.45 22.9-35.77 24.5-35.1 25.45-34.2L25.45-34.2 22.5-29.6Q21.75-30.45 20.48-31.08 19.2-31.7 17.85-32.05 16.5-32.4 15.35-32.4L15.35-32.4Q13.95-32.4 12.7-31.83 11.45-31.25 10.68-30.15 9.9-29.05 9.9-27.5L9.9-27.5Q9.9-25.9 10.85-24.8 11.8-23.7 13.3-22.8 14.8-21.9 16.45-21 18.1-20.1 19.6-18.93 21.1-17.75 22.05-16.1 23-14.45 23-12L23-12Q23-8.15 21.1-5.3 19.2-2.45 16.05-0.93 12.9 0.6 9.15 0.6L9.15 0.6Q6.35 0.6 3.45-0.13 0.55-0.85-1.8-2.45L-1.8-2.45 1.35-7.85Q2.35-6.75 3.6-5.93 4.85-5.1 6.28-4.65 7.7-4.2 9.2-4.2L9.2-4.2Q10.95-4.2 12.45-4.95 13.95-5.7 14.9-7.05 15.85-8.4 15.85-10.2L15.85-10.2Q15.85-11.85 14.9-13 13.95-14.15 12.45-15.08 10.95-16 9.28-16.9 7.6-17.8 6.1-18.95 4.6-20.1 3.65-21.73 2.7-23.35 2.7-25.7L2.7-25.7Q2.7-29.75 4.65-32.3 6.6-34.85 9.78-36.02 12.95-37.2 16.65-37.2ZM39.95 0.6L39.95 0.6Q36.2 0.6 33.5-0.65 30.8-1.9 29.05-4.08 27.3-6.25 26.45-9.05 25.6-11.85 25.6-14.9L25.6-14.9Q25.6-18.85 26.9-22.8 28.2-26.75 30.72-30.03 33.25-33.3 36.85-35.3 40.45-37.3 45.05-37.3L45.05-37.3Q46.75-37.3 48.8-36.95 50.85-36.6 52.75-35.83 54.65-35.05 55.85-33.75L55.85-33.75 51.8-29.15Q50.65-30.75 48.6-31.6 46.55-32.45 44.65-32.45L44.65-32.45Q41.8-32.45 39.57-30.98 37.35-29.5 35.82-27.08 34.3-24.65 33.52-21.73 32.75-18.8 32.75-15.85L32.75-15.85Q32.75-12.75 33.65-10.08 34.55-7.4 36.42-5.75 38.3-4.1 41.2-4.1L41.2-4.1Q43.1-4.1 45.32-4.75 47.55-5.4 50.1-6.7L50.1-6.7 51.9-3.1Q49-1.3 46.22-0.35 43.45 0.6 39.95 0.6ZM68.34 0.55L68.34 0.55Q63.7 0.55 60.55-1.43 57.39-3.4 55.8-6.85 54.2-10.3 54.2-14.75L54.2-14.75Q54.2-19.05 55.45-23.05 56.7-27.05 59.14-30.23 61.59-33.4 65.17-35.27 68.75-37.15 73.39-37.15L73.39-37.15Q78.14-37.15 81.34-35.25 84.55-33.35 86.19-29.95 87.84-26.55 87.84-21.95L87.84-21.95Q87.84-17.65 86.55-13.63 85.25-9.6 82.75-6.4 80.25-3.2 76.62-1.33 73 0.55 68.34 0.55ZM69.14-4.2L69.14-4.2Q71.75-4.2 73.72-5.33 75.69-6.45 77.05-8.33 78.39-10.2 79.22-12.5 80.05-14.8 80.42-17.2 80.8-19.6 80.8-21.7L80.8-21.7Q80.8-24.35 80.09-26.8 79.39-29.25 77.67-30.83 75.94-32.4 72.84-32.4L72.84-32.4Q70.25-32.4 68.3-31.28 66.34-30.15 65-28.28 63.64-26.4 62.8-24.1 61.95-21.8 61.57-19.4 61.2-17 61.2-14.9L61.2-14.9Q61.2-12.3 61.89-9.83 62.59-7.35 64.32-5.78 66.05-4.2 69.14-4.2ZM92.94-36.6L100.39-36.6 97.14-12.15Q97.09-11.8 97.07-11.48 97.04-11.15 97.04-10.8L97.04-10.8Q97.04-7.75 98.87-5.98 100.69-4.2 103.74-4.2L103.74-4.2Q106.19-4.2 108.04-5.33 109.89-6.45 111.04-8.3 112.19-10.15 112.44-12.25L112.44-12.25 115.74-36.6 121.09-36.6 118.04-13.9Q117.44-9.5 115.72-6.25 113.99-3 110.77-1.23 107.54 0.55 102.39 0.55L102.39 0.55Q98.69 0.55 95.99-0.7 93.29-1.95 91.87-4.48 90.44-7 90.44-10.8L90.44-10.8Q90.44-11.6 90.49-12.35 90.54-13.1 90.64-13.9L90.64-13.9 93.29-33.6 92.94-36.6ZM123.14-31.65L123.79-36.6 150.04-36.6 149.34-31.65 139.59-31.65 135.34 0 128.54 0 132.74-31.65 123.14-31.65ZM161.34 0.6L161.34 0.6Q157.59 0.6 154.89-0.65 152.19-1.9 150.44-4.08 148.69-6.25 147.84-9.05 146.99-11.85 146.99-14.9L146.99-14.9Q146.99-18.85 148.29-22.8 149.59-26.75 152.11-30.03 154.64-33.3 158.24-35.3 161.84-37.3 166.44-37.3L166.44-37.3Q168.14-37.3 170.19-36.95 172.24-36.6 174.14-35.83 176.04-35.05 177.24-33.75L177.24-33.75 173.19-29.15Q172.04-30.75 169.99-31.6 167.94-32.45 166.04-32.45L166.04-32.45Q163.19-32.45 160.96-30.98 158.74-29.5 157.21-27.08 155.69-24.65 154.91-21.73 154.14-18.8 154.14-15.85L154.14-15.85Q154.14-12.75 155.04-10.08 155.94-7.4 157.81-5.75 159.69-4.1 162.59-4.1L162.59-4.1Q164.49-4.1 166.71-4.75 168.94-5.4 171.49-6.7L171.49-6.7 173.29-3.1Q170.39-1.3 167.61-0.35 164.84 0.6 161.34 0.6ZM189.93-36.6L195.33-36.6 202.73 0 195.73 0 193.78-10.5 183.78-10.5 178.93 0 172.73 0 189.93-36.6ZM192.93-15.4L190.93-27.9 185.78-15.4 192.93-15.4ZM209.48-36.6L219.08-36.6 223.68-15.55Q224.03-14.05 224.11-12.55 224.18-11.05 224.23-9.5L224.23-9.5Q224.73-11.15 225.21-12.55 225.68-13.95 226.33-15.35L226.33-15.35 236.33-36.6 245.68-36.6 240.78 0 234.23 0 237.53-24.8Q237.63-25.7 237.86-26.63 238.08-27.55 238.23-28.4L238.23-28.4Q237.88-27.5 237.48-26.6 237.08-25.7 236.63-24.8L236.63-24.8 224.83 0.05 220.43 0.05 214.98-24.8Q214.93-25.15 214.66-26.23 214.38-27.3 214.28-28.4L214.28-28.4Q214.23-27.55 214.21-26.63 214.18-25.7 214.08-24.8L214.08-24.8 210.73 0 205.28 0 209.73-33.55 209.48-36.6ZM251.28-33.55L250.98-36.6 262.03-36.6Q265.03-36.6 267.58-35.65 270.13-34.7 271.7-32.6 273.28-30.5 273.28-27.05L273.28-27.05Q273.28-22.9 271.4-20.15 269.53-17.4 266.33-16.05 263.13-14.7 259.13-14.7L259.13-14.7 255.28-14.7 253.33 0 246.78 0 251.28-33.55ZM261.63-31.65L257.58-31.65 255.98-19.55 259.98-19.55Q262.03-19.55 263.45-20.6 264.88-21.65 265.61-23.33 266.33-25 266.33-26.9L266.33-26.9Q266.33-29.2 265.13-30.43 263.93-31.65 261.63-31.65L261.63-31.65Z" opacity="1" transform="matrix(1,0,0,1,0,0)" fill="#096a2e" class="wordmark-text-0" data-fill-palette-color="primary" id="text-0"></path></svg></g></svg></g></svg></g></svg></g><g><svg viewBox="0 0 197.14493836423117 197.14493836423117" height="197.14493836423117" width="197.14493836423117"><g><svg viewBox="0 0 197.14493836423117 197.14493836423117" height="197.14493836423117" width="197.14493836423117"><g transform="matrix(1,0,0,1,61.041020737590095,52.10496158413165)"><svg viewBox="0 0 75.06289688905098 92.93501519596786" height="92.93501519596786" width="75.06289688905098"><g><svg xmlns="http://www.w3.org/2000/svg" viewBox="11 6 42 52" x="0" y="0" height="92.93501519596786" width="75.06289688905098" class="icon-s-0" data-fill-palette-color="accent" id="s-0"><g fill="#096a2e" data-fill-palette-color="accent"><path d="M31 13a2.966 2.966 0 0 1 0.184-1H25v2h6.184A2.966 2.966 0 0 1 31 13Z" fill="#096a2e" data-fill-palette-color="accent"></path><circle cx="34" cy="13" r="1.0" fill="#096a2e" data-fill-palette-color="accent"></circle><path d="M43 14V12H36.816a2.809 2.809 0 0 1 0 2Z" fill="#096a2e" data-fill-palette-color="accent"></path><path d="M43 7a1 1 0 0 0-1-1H37.3L34.555 7.832a1 1 0 0 1-1.11 0L30.7 6H26a1 1 0 0 0-1 1v3H43Z" fill="#096a2e" data-fill-palette-color="accent"></path><path d="M26 36H42V20H26ZM38 22h2v2H38Zm-5 4h2v4H33Zm-5-4h2v2H28Zm0 10H40v2H28Z" fill="#096a2e" data-fill-palette-color="accent"></path><path d="M47 16H21a1 1 0 0 0 0 2H47a1 1 0 0 0 0-2Z" fill="#096a2e" data-fill-palette-color="accent"></path><path d="M11 38.99a3 3 0 0 0 3 3h1V26H11Z" fill="#096a2e" data-fill-palette-color="accent"></path><path d="M29.016 55.821L31 44.91V42H28a1 1 0 0 1-0.707-0.293L23.586 38H21v6h7a1 1 0 0 1 1 1v4a1 1 0 0 1-1 1H21v8H31.764l-2.211-1.1A1 1 0 0 1 29.016 55.821Z" fill="#096a2e" data-fill-palette-color="accent"></path><rect x="17" y="38" width="2" height="4" fill="#096a2e" data-fill-palette-color="accent"></rect><polygon points="31.586 40 29.586 38 26.414 38 28.414 40 31.586 40" fill="#096a2e" data-fill-palette-color="accent"></polygon><rect x="21" y="46" width="6" height="2" fill="#096a2e" data-fill-palette-color="accent"></rect><polygon points="41.586 38 38.414 38 36.414 40 39.586 40 41.586 38" fill="#096a2e" data-fill-palette-color="accent"></polygon><polygon points="35.586 38 32.414 38 34 39.586 35.586 38" fill="#096a2e" data-fill-palette-color="accent"></polygon><polygon points="31.118 55.441 33 56.382 33 46 32.834 46 31.118 55.441" fill="#096a2e" data-fill-palette-color="accent"></polygon><circle cx="42" cy="47" r="1.0" fill="#096a2e" data-fill-palette-color="accent"></circle><rect x="49" y="46" width="4" height="11.99" fill="#096a2e" data-fill-palette-color="accent"></rect><rect x="33" y="42" width="2" height="2" fill="#096a2e" data-fill-palette-color="accent"></rect><path d="M50 38H49v6h4V41A3 3 0 0 0 50 38Z" fill="#096a2e" data-fill-palette-color="accent"></path><path d="M40.707 41.707A1 1 0 0 1 40 42H37v2.91l1.984 10.911a1 1 0 0 1-0.537 1.074L36.236 58H47V38H44.414ZM45 54H43V52h2Zm-3-4a3 3 0 1 1 3-3A3 3 0 0 1 42 50Z" fill="#096a2e" data-fill-palette-color="accent"></path><polygon points="35.166 46 35 46 35 56.382 36.882 55.441 35.166 46" fill="#096a2e" data-fill-palette-color="accent"></polygon><circle cx="13" cy="22" r="2.0" fill="#096a2e" data-fill-palette-color="accent"></circle><polygon points="13 12 17.764 9 13 6 11 6 11 18 13 18 13 12" fill="#096a2e" data-fill-palette-color="accent"></polygon></g></svg></g></svg></g><g><path d="M3.282 67.452v0c0.118-0.353 0.305-0.743 0.561-1.169 0.253-0.42 0.543-0.814 0.869-1.182 0.335-0.372 0.666-0.647 0.992-0.825v0l1.471 1.829c-0.295 0.126-0.585 0.333-0.872 0.624-0.287 0.29-0.538 0.602-0.756 0.935-0.217 0.334-0.378 0.656-0.481 0.965v0c-0.129 0.385-0.174 0.77-0.134 1.155 0.044 0.393 0.181 0.748 0.411 1.063 0.227 0.307 0.551 0.532 0.974 0.674v0c0.429 0.144 0.838 0.137 1.228-0.02 0.383-0.159 0.765-0.399 1.146-0.721 0.383-0.328 0.77-0.675 1.16-1.042 0.396-0.365 0.822-0.696 1.279-0.992 0.453-0.304 0.946-0.511 1.481-0.619 0.534-0.108 1.136-0.051 1.804 0.173v0c1.041 0.349 1.862 0.912 2.465 1.689 0.602 0.777 0.966 1.66 1.09 2.649 0.129 0.997 0.023 2.003-0.317 3.019v0c-0.256 0.763-0.613 1.506-1.073 2.229-0.464 0.714-1.017 1.318-1.66 1.811v0l-1.776-2.016c0.394-0.17 0.758-0.388 1.093-0.654 0.341-0.264 0.636-0.569 0.885-0.914 0.249-0.345 0.442-0.722 0.579-1.131v0c0.159-0.473 0.206-0.948 0.141-1.426-0.067-0.471-0.239-0.897-0.518-1.279-0.279-0.381-0.665-0.654-1.157-0.819v0c-0.448-0.15-0.87-0.148-1.265 0.008-0.402 0.153-0.797 0.389-1.184 0.708-0.39 0.325-0.78 0.675-1.173 1.048-0.398 0.372-0.819 0.708-1.263 1.008-0.453 0.304-0.943 0.512-1.472 0.622-0.528 0.111-1.111 0.059-1.747-0.154v0c-1.097-0.368-1.904-0.933-2.42-1.695-0.516-0.762-0.787-1.628-0.813-2.598-0.034-0.966 0.117-1.95 0.452-2.953z" fill="#096a2e" data-fill-palette-color="accent"></path><path d="M29.325 52.055v0c-0.615 0.876-1.292 1.527-2.029 1.952-0.741 0.43-1.508 0.672-2.301 0.725-0.798 0.049-1.595-0.055-2.39-0.313-0.796-0.267-1.551-0.65-2.264-1.151v0c-0.925-0.65-1.744-1.452-2.455-2.407-0.715-0.949-1.248-1.99-1.598-3.123-0.351-1.132-0.464-2.285-0.34-3.457 0.124-1.172 0.565-2.298 1.322-3.375v0c0.279-0.397 0.628-0.807 1.046-1.228 0.418-0.422 0.874-0.793 1.367-1.113 0.499-0.316 0.998-0.506 1.497-0.57v0l0.619 2.556c-0.563 0.003-1.115 0.176-1.657 0.519-0.532 0.341-0.955 0.735-1.269 1.182v0c-0.466 0.664-0.712 1.378-0.735 2.141-0.019 0.767 0.131 1.526 0.448 2.278 0.314 0.757 0.75 1.466 1.31 2.127 0.556 0.667 1.179 1.243 1.871 1.728v0c0.724 0.508 1.473 0.876 2.248 1.104 0.78 0.231 1.517 0.265 2.21 0.1 0.696-0.169 1.283-0.594 1.761-1.274v0c0.313-0.446 0.576-0.982 0.786-1.606 0.215-0.63 0.38-1.351 0.495-2.164v0l1.707 0.261c-0.055 0.969-0.2 1.859-0.435 2.668-0.232 0.804-0.636 1.618-1.214 2.44z" fill="#096a2e" data-fill-palette-color="accent"></path><path d="M46.738 33.86v0c-1.059 0.805-2.117 1.254-3.174 1.347-1.062 0.097-2.076-0.11-3.041-0.621-0.956-0.51-1.82-1.273-2.593-2.29v0c-0.745-0.98-1.323-2.032-1.734-3.156-0.406-1.128-0.604-2.268-0.595-3.42 0.009-1.143 0.258-2.239 0.747-3.287 0.49-1.049 1.264-1.976 2.323-2.781v0c1.08-0.821 2.151-1.292 3.212-1.413 1.061-0.121 2.073 0.062 3.037 0.549 0.964 0.487 1.844 1.255 2.64 2.304v0c0.745 0.98 1.319 2.043 1.723 3.19 0.4 1.142 0.591 2.295 0.575 3.46-0.015 1.156-0.273 2.263-0.773 3.319-0.5 1.057-1.282 1.99-2.347 2.799zM45.778 32.02v0c0.593-0.451 1.018-0.974 1.275-1.57 0.253-0.602 0.372-1.231 0.357-1.888-0.019-0.662-0.135-1.326-0.348-1.991-0.208-0.669-0.477-1.309-0.806-1.919-0.33-0.61-0.678-1.156-1.044-1.637v0c-0.459-0.604-0.979-1.123-1.56-1.559-0.585-0.441-1.209-0.689-1.871-0.746-0.666-0.062-1.353 0.176-2.063 0.715v0c-0.593 0.451-1.015 0.972-1.267 1.565-0.248 0.598-0.364 1.225-0.349 1.882 0.019 0.662 0.132 1.328 0.34 1.997 0.203 0.673 0.469 1.315 0.798 1.925 0.33 0.61 0.678 1.156 1.045 1.637v0c0.451 0.593 0.969 1.11 1.554 1.551 0.59 0.446 1.215 0.697 1.877 0.754 0.671 0.058 1.358-0.18 2.062-0.716z" fill="#096a2e" data-fill-palette-color="accent"></path><path d="M61.958 6.905l3.026-1.019 2.036 10.39c0.013 0.101 0.031 0.197 0.054 0.287 0.023 0.09 0.051 0.183 0.083 0.277v0c0.278 0.826 0.748 1.397 1.41 1.715 0.653 0.313 1.396 0.33 2.227 0.05v0c0.662-0.223 1.194-0.571 1.596-1.043 0.394-0.477 0.665-1.017 0.813-1.621 0.139-0.608 0.148-1.208 0.026-1.798v0l-1.995-10.362 2.174-0.732 1.873 9.655c0.237 1.247 0.271 2.39 0.102 3.429-0.169 1.04-0.611 1.946-1.326 2.721-0.713 0.78-1.766 1.405-3.158 1.874v0c-1.009 0.34-1.936 0.462-2.782 0.369-0.846-0.094-1.577-0.42-2.193-0.978-0.62-0.549-1.104-1.341-1.452-2.374v0c-0.072-0.214-0.136-0.424-0.191-0.631-0.051-0.214-0.1-0.433-0.148-0.656v0l-1.622-8.381z" fill="#096a2e" data-fill-palette-color="accent"></path><path d="M92.187 2.273l0.252-2.129 11.264-0.144-0.272 2.129-4.191 0.054-1.641 13.611-2.923 0.037 1.631-13.611z" fill="#096a2e" data-fill-palette-color="accent"></path><path d="M121.674 19.308v0c-1.03-0.292-1.868-0.715-2.513-1.272-0.651-0.558-1.132-1.202-1.443-1.933-0.31-0.737-0.474-1.524-0.494-2.358-0.011-0.84 0.102-1.679 0.339-2.517v0c0.308-1.088 0.795-2.125 1.462-3.112 0.66-0.988 1.467-1.835 2.419-2.54 0.953-0.705 2.003-1.192 3.152-1.462 1.148-0.27 2.355-0.225 3.622 0.134v0c0.467 0.132 0.969 0.326 1.505 0.582 0.536 0.255 1.037 0.563 1.501 0.922 0.463 0.366 0.807 0.775 1.033 1.226v0l-2.209 1.428c-0.189-0.53-0.534-0.995-1.037-1.393-0.498-0.39-1.009-0.659-1.534-0.807v0c-0.781-0.221-1.535-0.217-2.264 0.012-0.73 0.236-1.398 0.627-2.002 1.175-0.611 0.546-1.136 1.192-1.575 1.939-0.446 0.745-0.784 1.524-1.014 2.336v0c-0.241 0.851-0.341 1.68-0.3 2.487 0.039 0.813 0.251 1.519 0.634 2.119 0.39 0.601 0.985 1.015 1.785 1.241v0c0.525 0.149 1.117 0.219 1.775 0.212 0.665-0.005 1.4-0.087 2.206-0.246v0l0.318 1.697c-0.933 0.268-1.821 0.425-2.663 0.47-0.836 0.047-1.737-0.067-2.703-0.34z" fill="#096a2e" data-fill-palette-color="accent"></path><path d="M153.46 16.405l1.937 1.267-5.935 14.894-2.522-1.649 1.775-4.228-3.599-2.353-4.213 2.634-2.222-1.453zM149.558 24.725l2.219-4.962-4.791 3.281z" fill="#096a2e" data-fill-palette-color="accent"></path><path d="M173.624 33.665l2.544 3.254-5.912 7.115c-0.27 0.346-0.569 0.66-0.897 0.942-0.323 0.278-0.656 0.559-0.999 0.845v0c0.462-0.176 0.891-0.334 1.288-0.475 0.4-0.136 0.818-0.255 1.252-0.358v0l9.827-2.236 2.47 3.16-13.677 8.018-1.733-2.216 9.26-5.44c0.225-0.134 0.461-0.259 0.707-0.375 0.251-0.111 0.485-0.223 0.702-0.334v0c-0.266 0.081-0.535 0.152-0.808 0.214-0.274 0.071-0.552 0.136-0.834 0.196v0l-11.525 2.575-1.161-1.485 6.959-8.416c0.07-0.072 0.204-0.236 0.401-0.491 0.192-0.251 0.403-0.484 0.633-0.697v0c-0.197 0.137-0.402 0.285-0.616 0.443-0.214 0.159-0.433 0.305-0.658 0.439v0l-9.272 5.424-1.437-1.84 12.524-7.371z" fill="#096a2e" data-fill-palette-color="accent"></path><path d="M191.263 64.749l1.191-0.553 1.563 4.485c0.282 0.81 0.415 1.606 0.398 2.386-0.019 0.774-0.237 1.474-0.654 2.098-0.417 0.624-1.093 1.099-2.028 1.425v0c-1.124 0.392-2.146 0.462-3.065 0.212-0.916-0.244-1.707-0.736-2.373-1.477-0.666-0.74-1.188-1.65-1.564-2.73v0l-0.545-1.564-6.236 1.295-0.926-2.657zM191.954 69.22l-0.574-1.649-5.132 1.069 0.564 1.621c0.193 0.553 0.497 0.971 0.913 1.256 0.425 0.289 0.897 0.452 1.417 0.489 0.52 0.037 1.038-0.034 1.553-0.213v0c0.622-0.217 1.039-0.545 1.252-0.986 0.221-0.436 0.224-0.965 0.007-1.587z" fill="#096a2e" data-fill-palette-color="accent"></path><path d="M23.678 128.018v0c0.121 0.359 0.208 0.786 0.262 1.28 0.05 0.503 0.058 1.005 0.024 1.508-0.041 0.505-0.139 0.931-0.296 1.279v0l-2.324-0.587c0.163-0.287 0.275-0.633 0.334-1.039 0.051-0.41 0.065-0.818 0.041-1.224-0.031-0.404-0.1-0.766-0.208-1.088v0c-0.129-0.385-0.331-0.724-0.606-1.017-0.274-0.294-0.602-0.496-0.983-0.606-0.373-0.106-0.773-0.087-1.201 0.057v0c-0.441 0.148-0.77 0.403-0.986 0.763-0.213 0.367-0.377 0.797-0.492 1.292-0.106 0.499-0.205 1.017-0.298 1.553-0.097 0.545-0.238 1.077-0.421 1.594-0.188 0.526-0.464 0.998-0.829 1.416-0.367 0.411-0.888 0.73-1.562 0.957v0c-1.065 0.358-2.08 0.409-3.045 0.151-0.964-0.258-1.801-0.752-2.509-1.482-0.715-0.728-1.247-1.609-1.595-2.643v0c-0.261-0.775-0.428-1.596-0.502-2.462-0.068-0.869 0.01-1.702 0.233-2.5v0l2.68 0.551c-0.209 0.379-0.372 0.781-0.489 1.207-0.112 0.417-0.162 0.844-0.148 1.281 0.005 0.433 0.078 0.858 0.219 1.274v0c0.163 0.485 0.418 0.898 0.764 1.238 0.348 0.346 0.753 0.589 1.213 0.728 0.459 0.133 0.937 0.116 1.436-0.051v0c0.454-0.153 0.795-0.411 1.023-0.776 0.232-0.373 0.405-0.81 0.517-1.311 0.121-0.497 0.225-1.02 0.314-1.569 0.097-0.545 0.234-1.079 0.409-1.6 0.175-0.522 0.443-0.988 0.803-1.397 0.365-0.417 0.869-0.734 1.512-0.951v0c1.122-0.378 2.127-0.414 3.016-0.11 0.88 0.3 1.631 0.834 2.254 1.6 0.616 0.768 1.096 1.663 1.44 2.684z" fill="#096a2e" data-fill-palette-color="accent"></path><path d="M20.128 156.648v0c-0.631-0.898-1.026-1.771-1.183-2.62-0.152-0.852-0.117-1.67 0.105-2.452 0.232-0.781 0.607-1.508 1.125-2.182 0.528-0.672 1.156-1.264 1.885-1.776v0c0.936-0.658 1.984-1.163 3.143-1.515 1.159-0.352 2.343-0.501 3.551-0.448 1.199 0.051 2.34 0.339 3.424 0.862 1.078 0.527 2.001 1.337 2.77 2.431v0c0.283 0.403 0.556 0.878 0.819 1.424 0.263 0.547 0.46 1.111 0.592 1.694 0.133 0.582 0.145 1.126 0.038 1.632v0l-2.656-0.291c0.186-0.545 0.207-1.134 0.064-1.765-0.139-0.626-0.369-1.167-0.691-1.625v0c-0.474-0.675-1.076-1.154-1.804-1.438-0.719-0.283-1.496-0.404-2.329-0.363-0.839 0.045-1.671 0.22-2.497 0.524-0.827 0.305-1.591 0.704-2.293 1.197v0c-0.74 0.52-1.352 1.113-1.835 1.778-0.487 0.66-0.77 1.351-0.849 2.072-0.078 0.722 0.126 1.428 0.612 2.119v0c0.321 0.457 0.744 0.896 1.267 1.317 0.523 0.421 1.154 0.827 1.893 1.218v0l-0.828 1.546c-0.916-0.389-1.721-0.835-2.416-1.338-0.686-0.502-1.322-1.169-1.907-2.001z" fill="#096a2e" data-fill-palette-color="accent"></path><path d="M39.944 177.267v0c-1.08-0.821-1.813-1.737-2.198-2.747-0.381-1.016-0.453-2.065-0.216-3.147 0.237-1.081 0.748-2.138 1.533-3.171v0c0.757-0.996 1.633-1.846 2.628-2.552 1-0.711 2.062-1.219 3.188-1.524 1.126-0.306 2.27-0.36 3.431-0.162 1.156 0.193 2.274 0.701 3.355 1.521v0c1.102 0.837 1.856 1.757 2.264 2.76 0.403 1.008 0.501 2.051 0.291 3.129-0.218 1.079-0.734 2.153-1.546 3.223v0c-0.757 0.996-1.64 1.845-2.65 2.547-1.014 0.708-2.092 1.213-3.232 1.517-1.146 0.299-2.305 0.345-3.477 0.14-1.167-0.202-2.29-0.713-3.371-1.534zM41.477 175.826v0c0.604 0.459 1.232 0.731 1.885 0.818 0.658 0.091 1.31 0.035 1.957-0.167 0.642-0.197 1.26-0.488 1.853-0.873 0.597-0.39 1.152-0.829 1.664-1.316 0.507-0.492 0.946-0.981 1.317-1.469v0c0.467-0.614 0.835-1.27 1.105-1.966 0.272-0.687 0.345-1.367 0.221-2.038-0.12-0.667-0.539-1.274-1.26-1.822v0c-0.604-0.459-1.229-0.729-1.877-0.812-0.657-0.081-1.306-0.023-1.948 0.173-0.642 0.197-1.265 0.488-1.868 0.875-0.598 0.381-1.154 0.815-1.666 1.302-0.511 0.497-0.95 0.986-1.316 1.469v0c-0.459 0.604-0.828 1.255-1.108 1.952-0.27 0.697-0.343 1.381-0.218 2.052 0.12 0.667 0.539 1.274 1.259 1.822z" fill="#096a2e" data-fill-palette-color="accent"></path><path d="M68.569 175.395l3.082 1.039-4.753 9.674c-0.044 0.09-0.085 0.179-0.12 0.265-0.038 0.092-0.073 0.186-0.105 0.28v0c-0.284 0.845-0.256 1.595 0.084 2.25 0.339 0.661 0.927 1.133 1.766 1.416v0c0.674 0.227 1.319 0.272 1.933 0.135 0.615-0.137 1.169-0.407 1.663-0.809 0.487-0.404 0.863-0.885 1.127-1.441v0l4.769-9.628 2.212 0.746-4.432 8.972c-0.574 1.161-1.251 2.109-2.031 2.842-0.776 0.742-1.691 1.206-2.743 1.393-1.061 0.19-2.3 0.047-3.718-0.431v0c-1.021-0.344-1.845-0.814-2.473-1.412-0.635-0.593-1.031-1.305-1.186-2.136-0.155-0.831-0.057-1.77 0.296-2.817v0c0.074-0.221 0.153-0.433 0.236-0.637 0.083-0.204 0.174-0.412 0.273-0.623v0l3.841-7.782z" fill="#096a2e" data-fill-palette-color="accent"></path><path d="M92.29 183.248l0.308-2.161 11.473 0.15-0.338 2.16-4.26-0.055-2.035 13.803-2.973-0.039 2.015-13.803z" fill="#096a2e" data-fill-palette-color="accent"></path><path d="M124.665 193.745v0c-1.056 0.298-2.011 0.381-2.864 0.248-0.855-0.139-1.614-0.443-2.278-0.912-0.66-0.477-1.222-1.072-1.686-1.784-0.459-0.721-0.81-1.51-1.051-2.368v0c-0.311-1.101-0.44-2.257-0.388-3.467 0.052-1.21 0.304-2.377 0.754-3.499 0.446-1.114 1.095-2.095 1.948-2.944 0.854-0.842 1.925-1.445 3.211-1.808v0c0.474-0.134 1.012-0.234 1.616-0.3 0.603-0.067 1.201-0.066 1.794 0.001 0.593 0.068 1.11 0.236 1.552 0.506v0l-1.155 2.409c-0.453-0.356-1.001-0.571-1.644-0.645-0.637-0.076-1.224-0.038-1.761 0.113v0c-0.794 0.224-1.446 0.633-1.956 1.226-0.505 0.585-0.877 1.277-1.114 2.077-0.236 0.806-0.347 1.649-0.333 2.53 0.014 0.881 0.137 1.734 0.37 2.56v0c0.246 0.871 0.602 1.644 1.07 2.321 0.461 0.679 1.019 1.174 1.674 1.487 0.655 0.313 1.389 0.354 2.201 0.125v0c0.538-0.152 1.092-0.405 1.663-0.76 0.57-0.354 1.163-0.815 1.776-1.382v0l1.184 1.294c-0.67 0.735-1.358 1.347-2.063 1.836-0.701 0.481-1.54 0.86-2.52 1.136z" fill="#096a2e" data-fill-palette-color="accent"></path><path d="M141.901 168.302l1.973-1.286 11.441 11.634-2.558 1.667-3.224-3.377-3.661 2.387 0.734 4.999-2.265 1.477zM148.057 175.353l-3.712-4.106 1.096 5.812z" fill="#096a2e" data-fill-palette-color="accent"></path><path d="M156.968 155.779l2.585-3.298 8.484 4.089c0.407 0.192 0.787 0.414 1.139 0.664 0.362 0.25 0.725 0.509 1.089 0.778v0c-0.287-0.411-0.549-0.798-0.787-1.162-0.237-0.355-0.456-0.734-0.657-1.136v0l-4.614-9.17 2.517-3.211 11.27 11.547-1.766 2.253-7.642-7.815c-0.184-0.186-0.362-0.39-0.536-0.61-0.172-0.211-0.344-0.413-0.514-0.606v0c0.148 0.243 0.287 0.491 0.418 0.746 0.14 0.253 0.271 0.512 0.392 0.776v0l5.361 10.757-1.181 1.507-10.015-4.819c-0.087-0.051-0.278-0.142-0.573-0.272-0.301-0.134-0.587-0.287-0.858-0.458v0c0.191 0.166 0.389 0.334 0.594 0.504 0.211 0.173 0.408 0.353 0.591 0.54v0l7.629 7.83-1.471 1.877-10.335-10.573z" fill="#096a2e" data-fill-palette-color="accent"></path><path d="M173.915 131.572l-1.305-0.319 1.594-4.558c0.288-0.822 0.686-1.539 1.196-2.151 0.503-0.613 1.12-1.035 1.849-1.266 0.729-0.231 1.568-0.181 2.516 0.151v0c1.143 0.4 2.003 0.993 2.58 1.779 0.573 0.778 0.891 1.672 0.954 2.681 0.063 1.009-0.098 2.062-0.482 3.161v0l-0.556 1.591 5.784 2.922-0.945 2.703zM176.188 127.579l-0.583 1.667 4.761 2.405 0.577-1.648c0.198-0.565 0.22-1.093 0.067-1.583-0.15-0.497-0.421-0.922-0.811-1.277-0.394-0.363-0.852-0.636-1.373-0.819v0c-0.634-0.222-1.175-0.228-1.622-0.017-0.455 0.214-0.794 0.638-1.016 1.272z" fill="#096a2e" data-fill-palette-color="accent"></path><path d="M1.976 101.091c0-3.378 2.739-6.117 6.117-6.117 3.378 0 6.117 2.739 6.117 6.118 0 3.378-2.739 6.117-6.117 6.117-3.378 0-6.117-2.739-6.117-6.117z" fill="#096a2e" data-fill-palette-color="accent"></path><path d="M182.935 101.091c0-3.378 2.739-6.117 6.117-6.117 3.378 0 6.117 2.739 6.117 6.118 0 3.378-2.739 6.117-6.117 6.117-3.378 0-6.117-2.739-6.117-6.117z" fill="#096a2e" data-fill-palette-color="accent"></path></g></svg></g></svg></g></svg></g><defs></defs></svg><rect width="395.52" height="124.79468579887018" fill="none" stroke="none" visibility="hidden"></rect></g></svg></g></svg>