<svg version="1.2" xmlns="http://www.w3.org/2000/svg" viewBox="0 0 315 315" width="315" height="315">
	<title>logo-no-background-svg</title>
	<style>
		.s0 { fill: #096a2e } 
	</style>
	<g id="Layer">
		<g id="Layer">
			<g id="tight-bounds">
				<g id="Layer">
					<g id="Layer">
						<g id="Layer">
							<g id="Layer">
								<g id="Layer">
									<g id="textblocktransform">
										<g id="textblock">
											<g id="Layer">
												<g id="Layer">
													<g id="Layer">
														<g id="Layer">
														</g>
													</g>
												</g>
											</g>
										</g>
									</g>
								</g>
							</g>
							<g id="Layer">
								<g id="Layer">
									<g id="Layer">
										<g id="Layer">
											<g id="Layer">
												<g id="Layer">
													<g id="Layer">
														<g id="s-0">
															<g id="Layer">
																<path id="Layer" class="s0" d="m154.7 103.1q0-0.4 0.1-0.8 0-0.3 0.1-0.7 0-0.3 0.1-0.7 0.1-0.3 0.2-0.7h-17.6v5.7h17.6q-0.1-0.3-0.2-0.7-0.1-0.3-0.1-0.7-0.1-0.3-0.1-0.7-0.1-0.4-0.1-0.7z"/>
																<path id="Layer" class="s0" d="m163.3 105.9c-1.6 0-2.9-1.2-2.9-2.8 0-1.6 1.3-2.9 2.9-2.9 1.6 0 2.8 1.3 2.8 2.9 0 1.6-1.2 2.8-2.8 2.8z"/>
																<path id="Layer" class="s0" d="m189 105.9v-5.7h-17.7q0.3 0.7 0.4 1.4 0.2 0.7 0.2 1.5 0 0.7-0.2 1.4-0.1 0.7-0.4 1.4z"/>
																<path id="Layer" class="s0" d="m189 86q0-0.6-0.2-1.1-0.2-0.5-0.6-0.9-0.4-0.4-1-0.7-0.5-0.2-1.1-0.2h-13.4l-7.8 5.2q-0.4 0.3-0.8 0.4-0.4 0.1-0.8 0.1-0.4 0-0.8-0.1-0.5-0.1-0.8-0.4l-7.8-5.2h-13.5q-0.5 0-1.1 0.2-0.5 0.3-0.9 0.7-0.4 0.4-0.6 0.9-0.2 0.5-0.2 1.1v8.5h51.4z"/>
																<path id="Layer" fill-rule="evenodd" class="s0" d="m140.4 123h45.7v45.6h-45.7zm34.3 11.4h5.7v-5.7h-5.7zm-14.3 17.2h5.7v-11.5h-5.7zm-14.3-17.1h5.8v-5.7h-5.8zm0 28.6h34.3v-5.8h-34.3z"/>
																<path id="Layer" class="s0" d="m200.4 111.6h-74.3c-0.7 0-1.4 0.3-2 0.9-0.5 0.5-0.8 1.2-0.8 2 0 0.7 0.3 1.5 0.8 2 0.6 0.5 1.3 0.8 2 0.8h74.3c0.8 0 1.5-0.3 2-0.8 0.6-0.5 0.9-1.3 0.9-2 0-0.8-0.3-1.5-0.9-2-0.5-0.6-1.2-0.9-2-0.9z"/>
																<path id="Layer" class="s0" d="m97.6 177.2c0 1.1 0.2 2.2 0.6 3.2 0.5 1.1 1.1 2 1.9 2.8 0.8 0.8 1.7 1.4 2.8 1.9 1 0.4 2.1 0.6 3.2 0.6h2.9v-45.6h-11.4z"/>
																<path id="Layer" class="s0" d="m149 225.2l5.7-31.2v-8.2h-8.6q-0.2 0-0.5-0.1-0.3-0.1-0.6-0.2-0.2-0.1-0.4-0.2-0.3-0.2-0.5-0.4l-10.6-10.6h-7.4v17.2h20q0.6 0 1.1 0.2 0.6 0.2 1 0.6 0.4 0.4 0.6 0.9 0.2 0.5 0.2 1.1v11.4q0 0.6-0.2 1.1-0.2 0.5-0.6 0.9-0.4 0.4-1 0.6-0.5 0.3-1.1 0.3h-20v22.8h30.8l-6.3-3.2q-0.4-0.2-0.8-0.5-0.3-0.3-0.5-0.8-0.2-0.4-0.3-0.8 0-0.5 0-0.9z"/>
																<path id="Layer" class="s0" d="m114.7 174.3h5.7v11.5h-5.7z"/>
																<path id="Layer" class="s0" d="m156.4 180l-5.7-5.7h-9.1l5.7 5.7h9.1z"/>
																<path id="Layer" class="s0" d="m126.1 197.2h17.2v5.7h-17.2z"/>
																<path id="Layer" class="s0" d="m185 174.3h-9.1l-5.7 5.7h9l5.8-5.7z"/>
																<path id="Layer" class="s0" d="m167.8 174.3h-9l4.5 4.6 4.5-4.6z"/>
																<path id="Layer" class="s0" d="m155 224.1l5.4 2.7v-29.6h-0.4l-5 26.9z"/>
																<path id="Layer" class="s0" d="m186.1 202.9c-1.5 0-2.8-1.3-2.8-2.9 0-1.6 1.3-2.8 2.8-2.8 1.6 0 2.9 1.2 2.9 2.8 0 1.6-1.3 2.9-2.9 2.9z"/>
																<path id="Layer" class="s0" d="m206.1 197.2h11.5v34.1h-11.5z"/>
																<path id="Layer" class="s0" d="m160.4 185.8h5.7v5.7h-5.7z"/>
																<path id="Layer" class="s0" d="m209 174.3h-2.9v17.2h11.5v-8.6c0-1.1-0.3-2.2-0.7-3.3-0.4-1-1.1-2-1.8-2.7-0.8-0.8-1.8-1.5-2.8-1.9-1.1-0.4-2.2-0.7-3.3-0.7z"/>
																<path id="Layer" fill-rule="evenodd" class="s0" d="m193 174.3h7.4v57.1h-30.7l6.3-3.2q0.4-0.2 0.7-0.5 0.4-0.3 0.6-0.8 0.2-0.4 0.2-0.8 0.1-0.5 0-0.9l-5.6-31.2v-8.2h8.5q0.3 0 0.6-0.1 0.3-0.1 0.5-0.2 0.3-0.1 0.5-0.2 0.2-0.2 0.4-0.4zm1.7 39.9h-5.7v5.7h5.7zm-5.3-6.3c1.1-0.5 2-1.1 2.8-1.9 0.8-0.8 1.4-1.7 1.9-2.8 0.4-1 0.6-2.1 0.6-3.2 0-3.5-2.1-6.6-5.3-7.9-3.2-1.3-6.9-0.6-9.3 1.8-2.5 2.5-3.2 6.2-1.9 9.3 1.4 3.2 4.5 5.3 7.9 5.3 1.2 0 2.3-0.2 3.3-0.6z"/>
																<path id="Layer" class="s0" d="m166.6 197.2h-0.5v29.6l5.4-2.7-4.9-26.9z"/>
																<path id="Layer" class="s0" d="m103.3 134.4c-3.2 0-5.7-2.5-5.7-5.7 0-3.1 2.5-5.7 5.7-5.7 3.1 0 5.7 2.6 5.7 5.7 0 3.2-2.6 5.7-5.7 5.7z"/>
																<path id="Layer" class="s0" d="m103.3 100.2l13.6-8.5-13.6-8.6h-5.7v34.2h5.7v-17.1z"/>
															</g>
														</g>
													</g>
												</g>
											</g>
											<g id="Layer">
												<path id="Layer" class="s0" d="m5.2 107.6q0.3-0.8 0.9-1.9 0.7-1 1.4-1.9 0.8-0.8 1.6-1.3l2.4 2.9q-0.7 0.3-1.4 1-0.7 0.7-1.2 1.5-0.6 0.8-0.8 1.6-0.3 0.9-0.2 1.8 0.1 1 0.6 1.7 0.6 0.7 1.6 1.1 1 0.3 2 0 0.9-0.4 1.8-1.2 0.9-0.8 1.8-1.7 1-0.8 2.1-1.5 1.1-0.8 2.4-1 1.2-0.3 2.8 0.3 2.5 0.8 4 2.6 1.4 1.9 1.7 4.3 0.3 2.4-0.5 4.8-0.6 1.8-1.7 3.5-1.1 1.8-2.7 2.9l-2.8-3.2q1-0.4 1.8-1 0.8-0.7 1.4-1.5 0.6-0.8 0.9-1.8 0.4-1.1 0.2-2.3-0.1-1.1-0.8-2-0.7-0.9-1.9-1.3-1-0.4-2 0-0.9 0.4-1.9 1.1-0.9 0.8-1.8 1.7-1 0.9-2.1 1.6-1 0.7-2.3 1-1.3 0.3-2.8-0.2-2.6-0.9-3.9-2.7-1.2-1.9-1.3-4.2-0.1-2.3 0.7-4.7z"/>
												<path id="Layer" class="s0" d="m46.9 83q-1.5 2.1-3.3 3.2-1.7 1-3.6 1.1-2 0.1-3.9-0.5-1.9-0.6-3.6-1.8-2.2-1.6-3.9-3.9-1.7-2.2-2.6-4.9-0.8-2.8-0.5-5.6 0.3-2.8 2.1-5.3 0.7-1 1.7-2 1-1 2.2-1.8 1.2-0.7 2.4-0.9l0.9 4.1q-1.3 0-2.6 0.8-1.3 0.8-2 1.9-1.1 1.6-1.2 3.4-0.1 1.8 0.7 3.6 0.8 1.9 2.1 3.4 1.3 1.6 3 2.8 1.7 1.2 3.6 1.8 1.9 0.5 3.5 0.1 1.7-0.4 2.8-2 0.8-1.1 1.3-2.6 0.5-1.5 0.8-3.4l2.7 0.4q-0.1 2.3-0.7 4.2-0.5 2-1.9 3.9z"/>
												<path id="Layer" fill-rule="evenodd" class="s0" d="m74.7 54q-2.5 1.9-5.1 2.2-2.5 0.2-4.8-1-2.3-1.2-4.2-3.7-1.8-2.3-2.7-5-1-2.7-1-5.5 0-2.7 1.2-5.2 1.2-2.5 3.7-4.5 2.6-1.9 5.2-2.2 2.5-0.3 4.8 0.9 2.3 1.1 4.2 3.6 1.8 2.4 2.8 5.1 0.9 2.8 0.9 5.6 0 2.7-1.2 5.2-1.2 2.6-3.8 4.5zm-1.5-2.9q1.4-1.1 2-2.5 0.6-1.5 0.6-3-0.1-1.6-0.6-3.2-0.5-1.6-1.3-3.1-0.8-1.4-1.6-2.6-1.1-1.4-2.5-2.5-1.4-1-3-1.2-1.6-0.1-3.3 1.2-1.4 1.1-2 2.5-0.6 1.4-0.6 3 0.1 1.6 0.5 3.2 0.5 1.6 1.3 3 0.8 1.5 1.7 2.6 1.1 1.5 2.5 2.5 1.4 1.1 3 1.2 1.6 0.2 3.3-1.1z"/>
												<path id="Layer" class="s0" d="m99 11l4.9-1.6 3.2 16.6q0.1 0.2 0.1 0.4 0.1 0.2 0.2 0.5 0.6 1.9 2.2 2.7 1.6 0.7 3.6 0.1 1.6-0.6 2.5-1.7 1-1.1 1.3-2.6 0.3-1.4 0.1-2.8l-3.2-16.6 3.4-1.1 3 15.4q0.6 2.9 0.2 5.4-0.4 2.5-2.1 4.4-1.7 1.8-5.1 3-2.4 0.8-4.4 0.6-2-0.3-3.5-1.6-1.5-1.3-2.3-3.8-0.2-0.5-0.3-1-0.2-0.5-0.3-1l-2.6-13.4z"/>
												<path id="Layer" class="s0" d="m147.4 3.6l0.4-3.4 18-0.2-0.5 3.4-6.7 0.1-2.6 21.7-4.7 0.1 2.6-21.8z"/>
												<path id="Layer" class="s0" d="m194.5 30.8q-2.5-0.7-4-2-1.6-1.4-2.3-3.1-0.8-1.8-0.8-3.8 0-2 0.5-4 0.8-2.6 2.4-5 1.5-2.3 3.8-4 2.3-1.7 5.1-2.3 2.7-0.7 5.8 0.2 1.1 0.3 2.4 0.9 1.2 0.6 2.4 1.5 1.1 0.9 1.6 1.9l-3.5 2.3q-0.5-1.3-1.7-2.2-1.2-0.9-2.4-1.3-1.9-0.5-3.6 0-1.8 0.6-3.2 1.9-1.5 1.3-2.6 3.1-1 1.8-1.6 3.7-0.6 2-0.5 4 0.1 1.9 1 3.4 1 1.4 2.9 1.9 1.3 0.4 2.8 0.4 1.6 0 3.6-0.4l0.5 2.7q-2.3 0.6-4.3 0.7-2 0.2-4.3-0.5z"/>
												<path id="Layer" fill-rule="evenodd" class="s0" d="m245.3 26.2l3.1 2-9.5 23.7-4-2.6 2.8-6.7-5.7-3.8-6.8 4.2-3.5-2.3zm-6.3 13.3l3.6-7.9-7.7 5.2z"/>
												<path id="Layer" class="s0" d="m277.5 53.7l4.1 5.2-9.4 11.3q-0.7 0.9-1.5 1.5-0.8 0.7-1.6 1.4 1.1-0.4 2.1-0.8 0.9-0.3 2-0.5l15.7-3.6 3.9 5-21.8 12.8-2.8-3.5 14.8-8.7q0.6-0.3 1.1-0.6 0.6-0.2 1.2-0.5-0.7 0.2-1.3 0.3-0.7 0.2-1.4 0.3l-18.4 4.1-1.8-2.3 11.1-13.4q0.2-0.2 0.6-0.8 0.5-0.6 1-1.1-0.4 0.3-0.9 0.7-0.6 0.3-1.1 0.7l-14.8 8.6-2.3-2.9 20-11.8z"/>
												<path id="Layer" fill-rule="evenodd" class="s0" d="m305.7 103.3l1.9-0.9 2.5 7.2q0.7 1.9 0.7 3.8-0.1 1.8-1.1 3.3-1 1.5-3.2 2.3-2.7 0.9-4.9 0.3-2.2-0.6-3.8-2.3-1.6-1.8-2.5-4.4l-0.9-2.5-9.9 2.1-1.5-4.3zm1.1 7.2l-0.9-2.7-8.2 1.8 0.9 2.5q0.4 1.4 1.4 2 1 0.7 2.3 0.8 1.2 0.1 2.5-0.3 1.5-0.5 2-1.6 0.5-1 0-2.5z"/>
												<path id="Layer" class="s0" d="m37.8 204.2q0.3 0.9 0.5 2.1 0.1 1.2 0 2.4-0.1 1.2-0.5 2l-3.7-0.9q0.4-0.7 0.6-1.7 0.1-1 0-1.9-0.1-1-0.3-1.8-0.3-0.9-1-1.6-0.6-0.7-1.6-1-0.8-0.2-1.9 0.1-1 0.4-1.6 1.2-0.5 0.9-0.7 2.1-0.3 1.2-0.5 2.5-0.2 1.3-0.7 2.5-0.4 1.3-1.3 2.3-0.9 1-2.5 1.5-2.6 0.9-4.9 0.2-2.3-0.6-4-2.3-1.7-1.8-2.5-4.2-0.7-1.9-0.8-4-0.2-2 0.3-4l4.3 0.9q-0.5 0.9-0.8 2-0.2 1-0.2 2 0 1 0.3 2 0.4 1.2 1.3 2 0.8 0.8 1.9 1.2 1.1 0.3 2.3-0.1 1.1-0.4 1.6-1.3 0.6-0.8 0.9-2 0.3-1.2 0.5-2.5 0.2-1.4 0.6-2.6 0.4-1.2 1.3-2.2 0.9-1 2.4-1.5 2.7-0.9 4.8-0.2 2.2 0.7 3.6 2.5 1.5 1.9 2.3 4.3z"/>
												<path id="Layer" class="s0" d="m32.2 249.9q-1.5-2.2-1.9-4.2-0.4-2 0.2-3.9 0.5-1.9 1.7-3.5 1.3-1.6 3.1-2.8 2.2-1.6 5-2.4 2.8-0.9 5.7-0.8 2.8 0.2 5.4 1.4 2.6 1.3 4.5 3.9 0.6 1 1.3 2.3 0.6 1.3 0.9 2.7 0.3 1.4 0.1 2.6l-4.3-0.5q0.5-1.3 0.1-2.8-0.3-1.5-1.1-2.6-1.1-1.6-2.9-2.3-1.7-0.7-3.7-0.6-2 0.1-4 0.9-1.9 0.7-3.6 1.9-1.8 1.2-3 2.8-1.1 1.6-1.3 3.3-0.2 1.7 1 3.4 0.7 1.1 2 2.1 1.2 1 3 1.9l-1.3 2.5q-2.2-0.9-3.9-2.1-1.6-1.2-3-3.2z"/>
												<path id="Layer" fill-rule="evenodd" class="s0" d="m63.9 282.8q-2.6-2-3.6-4.4-0.9-2.4-0.3-5 0.6-2.6 2.4-5.1 1.9-2.4 4.2-4.1 2.4-1.7 5.1-2.4 2.7-0.7 5.5-0.2 2.8 0.4 5.4 2.4 2.6 2 3.6 4.4 1 2.4 0.5 5-0.6 2.6-2.5 5.1-1.8 2.4-4.2 4.1-2.5 1.7-5.2 2.4-2.8 0.7-5.6 0.2-2.8-0.5-5.3-2.4zm2.4-2.3q1.4 1.1 3 1.3 1.6 0.2 3.1-0.3 1.6-0.5 3-1.4 1.4-0.9 2.7-2.1 1.2-1.2 2.1-2.3 1.1-1.5 1.7-3.2 0.7-1.6 0.4-3.2-0.3-1.6-2-2.9-1.5-1.1-3-1.3-1.6-0.2-3.1 0.3-1.6 0.4-3 1.4-1.5 0.9-2.7 2-1.2 1.2-2.1 2.4-1.1 1.4-1.8 3.1-0.6 1.7-0.3 3.3 0.3 1.6 2 2.9z"/>
												<path id="Layer" class="s0" d="m109.6 279.8l4.9 1.6-7.6 15.5q-0.1 0.2-0.2 0.4 0 0.2-0.1 0.4-0.7 2.1 0.1 3.6 0.8 1.6 2.8 2.3 1.7 0.5 3.1 0.2 1.5-0.3 2.7-1.3 1.2-0.9 1.8-2.3l7.6-15.3 3.5 1.2-7 14.3q-1.4 2.7-3.3 4.5-1.8 1.8-4.4 2.2-2.5 0.5-5.9-0.7-2.5-0.8-4-2.2-1.5-1.4-1.9-3.4-0.3-2 0.5-4.5 0.2-0.5 0.4-1 0.2-0.5 0.4-1l6.2-12.4z"/>
												<path id="Layer" class="s0" d="m147.5 292.3l0.5-3.4 18.4 0.2-0.6 3.5-6.8-0.1-3.2 22-4.8-0.1 3.2-22z"/>
												<path id="Layer" class="s0" d="m199.3 309.1q-2.6 0.7-4.6 0.4-2-0.4-3.6-1.5-1.6-1.1-2.7-2.8-1.1-1.8-1.7-3.8-0.8-2.7-0.6-5.6 0.1-2.8 1.2-5.5 1-2.7 3.1-4.7 2-2 5.1-2.9 1.2-0.3 2.6-0.5 1.4-0.2 2.9 0 1.4 0.2 2.4 0.8l-1.8 3.9q-1.1-0.9-2.6-1.1-1.6-0.2-2.8 0.2-1.9 0.5-3.2 2-1.2 1.4-1.7 3.3-0.6 1.9-0.6 4 0.1 2.1 0.6 4.1 0.6 2.1 1.7 3.7 1.1 1.6 2.7 2.4 1.6 0.7 3.5 0.2 1.3-0.4 2.7-1.2 1.3-0.9 2.8-2.2l1.9 2q-1.6 1.8-3.3 2.9-1.7 1.2-4 1.9z"/>
												<path id="Layer" fill-rule="evenodd" class="s0" d="m226.8 268.5l3.2-2.1 18.3 18.6-4.1 2.6-5.2-5.3-5.8 3.8 1.2 7.9-3.7 2.4zm9.9 11.2l-6-6.5 1.8 9.3z"/>
												<path id="Layer" class="s0" d="m250.9 248.5l4.1-5.3 13.6 6.6q1 0.4 1.8 1 0.9 0.6 1.8 1.3-0.7-1-1.3-1.9-0.6-0.8-1-1.8l-7.4-14.6 4-5.2 18 18.5-2.8 3.6-12.2-12.5q-0.5-0.5-0.9-1-0.4-0.5-0.8-0.9 0.4 0.5 0.7 1.1 0.3 0.6 0.6 1.3l8.6 17.1-1.9 2.4-16-7.6q-0.2-0.2-0.9-0.5-0.8-0.3-1.4-0.7 0.4 0.4 0.9 0.8 0.5 0.4 1 0.9l12.2 12.4-2.4 3-16.5-16.8z"/>
												<path id="Layer" fill-rule="evenodd" class="s0" d="m278 209.9l-2.1-0.5 2.6-7.3q0.7-2 1.9-3.4 1.2-1.5 2.9-2 1.8-0.6 4.1 0.2 2.7 0.9 4.1 2.8 1.4 1.9 1.5 4.3 0.2 2.4-0.8 5l-0.9 2.6 9.3 4.6-1.5 4.4zm3.6-6.4l-0.9 2.6 7.6 3.9 0.9-2.6q0.5-1.4 0.1-2.6-0.3-1.2-1.3-2-0.9-0.9-2.2-1.3-1.5-0.5-2.6 0-1.1 0.5-1.6 2z"/>
												<path id="Layer" class="s0" d="m3.2 161.3c0-5.4 4.3-9.8 9.7-9.8 5.4 0 9.8 4.4 9.8 9.8 0 5.3-4.4 9.7-9.8 9.7-5.4 0-9.7-4.4-9.7-9.7z"/>
												<path id="Layer" class="s0" d="m292.4 161.3c0-5.4 4.4-9.8 9.8-9.8 5.4 0 9.8 4.4 9.8 9.8 0 5.3-4.4 9.7-9.8 9.7-5.4 0-9.8-4.4-9.8-9.7z"/>
											</g>
										</g>
									</g>
								</g>
							</g>
						</g>
					</g>
				</g>
			</g>
		</g>
	</g>
</svg>